<?xml version="1.0" encoding="UTF-8"?>
<svg id="Capa_1" data-name="Capa 1" xmlns="http://www.w3.org/2000/svg" viewBox="0 0 54.75 46.63">
  <defs>
    <style>
      .cls-1 {
        fill: #3a3a38;
      }
    </style>
  </defs>
  <path class="cls-1" d="M.9.7C.6.47.3.24,0,0c5.28,5.24,10.28,11.61,10.28,23.32,0,11.7-5,18.08-10.28,23.32.3-.23.6-.46.9-.7.43-.33.87-.65,1.32-.96.32-.22.64-.44.96-.64.35-.24.72-.47,1.08-.69.21-.13.42-.26.63-.39.35-.21.69-.41,1.05-.61.32-.18.64-.35.97-.51.51-.29,1.03-.54,1.56-.78.25-.13.51-.24.76-.35.06-.02.11-.05.17-.08.25-.12.52-.23.78-.34.43-.19.87-.36,1.31-.53.01-.01.02-.01.04-.02.36-.14.73-.28,1.1-.41.08-.02.14-.05.22-.08.45-.17.92-.31,1.38-.45.02-.01.03-.01.06-.02.37-.11.75-.22,1.13-.32.26-.08.53-.15.79-.22.43-.11.86-.22,1.3-.32.02-.01.05-.01.08-.02.35-.08.71-.15,1.07-.22.23-.05.46-.1.71-.13.35-.07.71-.13,1.07-.19,2.26-.36,4.58-.55,6.94-.55,2.36,0,4.68.19,6.94.55.36.05.72.12,1.07.19.24.03.47.08.71.13.36.07.72.14,1.07.22.02.01.05.01.08.02.44.1.87.21,1.3.32.26.07.53.14.79.22.37.1.75.21,1.12.32.02.01.03.01.06.02.46.14.93.29,1.38.45.08.02.14.06.22.08.38.13.74.26,1.1.41.02.01.03.01.04.02.44.17.88.34,1.31.53.26.11.53.22.78.34.06.02.11.06.17.08.25.11.51.22.76.35.53.24,1.05.5,1.56.78.33.15.65.33.97.51.35.2.7.4,1.05.61.21.12.42.25.63.39.36.22.73.45,1.08.69.32.2.64.42.96.64.45.31.89.63,1.32.96.31.23.61.46.9.7-5.28-5.24-10.28-11.61-10.28-23.32,0-11.7,5-18.08,10.28-23.32-.3.24-.6.47-.9.7-.43.33-.87.65-1.32.96-.32.22-.64.44-.96.64-.34.24-.71.46-1.06.68-.01,0-.01.01-.02.01-.21.13-.42.26-.63.39-.35.21-.69.41-1.05.61-.32.18-.64.35-.97.51-.51.29-1.03.54-1.56.78-.25.13-.51.24-.76.35-.06.02-.11.05-.17.08-.25.12-.52.23-.78.34-.43.19-.87.36-1.31.53-.01.01-.02.01-.04.02-.36.14-.73.28-1.1.41-.08.02-.14.05-.22.08-.45.17-.92.31-1.38.45-.02.01-.03.01-.06.02-.37.11-.75.22-1.12.32-.26.08-.53.15-.79.22-.43.11-.86.22-1.3.32-.02.01-.05.01-.08.02-.35.08-.71.15-1.07.22-.23.05-.46.1-.71.13-.35.07-.71.13-1.07.19-2.26.36-4.58.55-6.94.55s-4.68-.19-6.94-.55c-.36-.05-.72-.12-1.07-.19-.24-.03-.47-.08-.71-.13-.36-.07-.72-.14-1.07-.22-.02-.01-.05-.01-.08-.02-.44-.1-.87-.21-1.3-.32-.26-.07-.53-.14-.79-.22-.38-.1-.75-.21-1.13-.32-.02-.01-.03-.01-.06-.02-.46-.14-.93-.29-1.38-.45-.08-.02-.14-.05-.22-.08-.38-.13-.74-.26-1.1-.41-.02-.01-.03-.01-.04-.02-.44-.17-.88-.34-1.31-.53-.26-.11-.53-.22-.78-.34-.06-.02-.11-.05-.17-.08-.25-.11-.51-.22-.76-.35-.53-.24-1.05-.5-1.56-.78-.33-.15-.65-.33-.97-.51-.35-.2-.7-.4-1.05-.61-.21-.12-.42-.25-.63-.39-.01,0-.01-.01-.02-.01-.35-.22-.72-.44-1.06-.68-.32-.2-.64-.42-.96-.64-.45-.31-.89-.63-1.32-.96Z"/>
</svg>