<?xml version="1.0" encoding="UTF-8"?>
<svg id="Capa_1" data-name="Capa 1" xmlns="http://www.w3.org/2000/svg" viewBox="0 0 82.05 82">
  <defs>
    <style>
      .cls-1 {
        fill: #3a3a38;
      }
    </style>
  </defs>
  <path class="cls-1" d="M0,31.61c.59.04,1.18.05,1.78.05,1.31,0,2.6-.08,3.87-.25,14.7-1.9,26.05-14.46,26.05-29.67v-.37c0-.46-.02-.91-.05-1.37,3.22,26.32,24.09,47.19,50.41,50.41-.46-.03-.91-.04-1.37-.05h-.37c-15.21,0-27.77,11.35-29.67,26.05-.16,1.26-.25,2.56-.25,3.87,0,.58.01,1.16.05,1.73-2.33-18.96-13.81-35.09-29.9-43.83-1.12-.61-2.26-1.18-3.43-1.72-5.32-2.45-11.08-4.11-17.12-4.85Z"/>
</svg>