<?xml version="1.0" encoding="UTF-8"?>
<svg id="Capa_1" data-name="Capa 1" xmlns="http://www.w3.org/2000/svg" viewBox="0 0 82 35.46">
  <defs>
    <style>
      .cls-1 {
        fill: #3a3a38;
      }
    </style>
  </defs>
  <path class="cls-1" d="M35.46,17.73c0-.95-.08-1.88-.22-2.79-.02-.15-.05-.29-.08-.43-.01-.1-.03-.19-.05-.28-.03-.15-.06-.29-.09-.43,0,0,0-.02,0-.03-.04-.18-.08-.35-.13-.52-.03-.11-.06-.21-.09-.32-.04-.15-.08-.3-.13-.45,0,0,0-.01,0-.02-.06-.19-.12-.37-.18-.55,0-.03-.02-.06-.03-.09-.05-.15-.11-.3-.16-.44,0,0,0-.01,0-.02-.07-.18-.14-.35-.21-.53-.04-.11-.09-.21-.14-.31,0-.02-.02-.04-.03-.07-.04-.1-.09-.2-.14-.31-.1-.21-.2-.42-.31-.62-.06-.13-.13-.26-.2-.39-.08-.14-.16-.28-.24-.42-.05-.08-.1-.17-.16-.25-.09-.15-.18-.29-.28-.43-.08-.13-.17-.26-.26-.39-.12-.18-.25-.36-.39-.53-.09-.12-.19-.24-.28-.36-1.37-1.73-3.05-3.2-4.97-4.32-.65-.38-1.33-.72-2.03-1.02C22.51.5,20.18,0,17.73,0,7.94,0,0,7.94,0,17.73s7.94,17.73,17.73,17.73c2.45,0,4.78-.5,6.9-1.39.7-.3,1.38-.64,2.03-1.02,1.92-1.12,3.6-2.58,4.97-4.32.09-.12.19-.24.28-.36.13-.17.26-.35.39-.53.09-.13.18-.26.26-.39.1-.14.19-.29.28-.43.05-.08.11-.17.16-.25.08-.14.16-.28.24-.42.07-.13.14-.26.2-.39.12-.2.22-.41.31-.62.05-.1.1-.2.14-.31,0-.02.02-.04.03-.07.05-.11.09-.21.14-.31.08-.17.15-.35.21-.53,0,0,0,0,0-.02.06-.15.11-.29.16-.44,0-.03.02-.06.03-.09.07-.19.12-.37.18-.55,0,0,0-.01,0-.02.04-.15.09-.3.13-.45.03-.11.06-.21.09-.32.04-.17.09-.35.13-.52,0,0,0-.02,0-.03.03-.14.06-.28.09-.43.02-.09.04-.19.05-.28.03-.14.05-.28.08-.43.15-.91.22-1.84.22-2.79Z"/>
  <path class="cls-1" d="M82,17.73c0-9.79-7.94-17.73-17.73-17.73-2.45,0-4.78.5-6.9,1.39-.7.3-1.38.64-2.03,1.02-1.92,1.12-3.6,2.58-4.97,4.32-.1.12-.19.24-.28.36-.13.17-.26.35-.39.53-.09.13-.18.26-.26.39-.1.14-.19.28-.27.43,0,0,0,0,0,0-.05.08-.11.17-.16.25-.08.14-.16.28-.24.42-.07.13-.14.26-.2.39-.12.2-.22.41-.31.62-.05.1-.1.2-.14.31,0,.02-.02.04-.03.07-.05.1-.09.21-.14.31-.08.17-.15.35-.21.53,0,0,0,0,0,.02-.06.15-.11.29-.16.44,0,.03-.02.06-.03.09-.07.18-.12.37-.18.55,0,0,0,.01,0,.02-.04.15-.09.3-.13.45-.03.11-.06.21-.09.32-.04.17-.09.35-.13.52,0,0,0,.02,0,.03-.03.14-.06.28-.09.43-.02.09-.04.19-.05.28-.03.14-.05.28-.08.43-.15.91-.22,1.84-.22,2.79s.08,1.88.22,2.79c.02.15.05.29.08.43.01.1.03.19.05.28.03.15.06.29.09.43,0,0,0,.02,0,.03.04.18.08.35.13.52.03.11.06.21.09.32.04.15.08.3.13.45,0,0,0,.01,0,.02.06.19.12.37.18.55,0,.03.02.06.03.09.05.15.11.3.16.44,0,0,0,.01,0,.02.07.18.14.35.21.53.04.11.09.21.14.31,0,.02.02.04.03.07.04.1.09.2.14.31.1.21.2.42.31.62.06.13.13.26.2.39.08.14.16.28.24.42.05.08.1.17.16.25,0,0,0,0,0,0,.09.14.18.29.27.43.08.13.17.26.26.39.12.18.25.36.39.53.09.12.18.24.28.36,1.37,1.73,3.05,3.2,4.97,4.32.65.38,1.33.72,2.03,1.02,2.12.9,4.45,1.39,6.9,1.39,9.79,0,17.73-7.94,17.73-17.73Z"/>
  <path class="cls-1" d="M50.09,7.09c.09-.12.18-.24.28-.36-2.11,2.12-4.67,4.13-9.37,4.13s-7.26-2.01-9.37-4.13c.09.12.19.24.28.36.13.17.26.35.39.53.09.13.18.26.26.39.1.14.19.29.28.43.05.08.11.17.16.25.08.14.16.28.24.42.07.13.14.26.2.39.12.2.22.41.31.62.05.1.1.2.14.31,0,.02.02.04.03.07.05.1.09.21.14.31.08.17.15.35.21.53,0,0,0,0,0,.02.06.15.11.29.16.44,0,.03.02.06.03.09.07.18.12.37.18.55,0,0,0,.01,0,.02.04.15.09.3.13.45.03.11.06.21.09.32.04.17.09.35.13.52,0,0,0,.02,0,.03.03.14.06.28.09.43.02.09.04.19.05.28.03.14.05.28.08.43.15.91.22,1.84.22,2.79s-.08,1.88-.22,2.79c-.02.15-.05.29-.08.43-.01.1-.03.19-.05.28-.03.15-.06.29-.09.43,0,0,0,.02,0,.03-.04.18-.08.35-.13.52-.03.11-.06.21-.09.32-.04.15-.08.3-.13.45,0,0,0,.01,0,.02-.06.19-.12.37-.18.55,0,.03-.02.06-.03.09-.05.15-.11.3-.16.44,0,0,0,.01,0,.02-.07.18-.14.35-.21.53-.04.11-.09.21-.14.31,0,.02-.02.04-.03.07-.04.1-.09.2-.14.31-.1.21-.2.42-.31.62-.06.13-.13.26-.2.39-.08.14-.16.28-.24.42-.05.08-.1.17-.16.25-.09.15-.18.29-.28.43-.08.13-.17.26-.26.39-.12.18-.25.36-.39.53-.09.12-.19.24-.28.36,2.11-2.12,4.67-4.13,9.37-4.13s7.26,2.01,9.37,4.13c-.1-.12-.19-.24-.28-.36-.13-.17-.26-.35-.39-.53-.09-.13-.18-.26-.26-.39-.1-.14-.19-.28-.27-.43,0,0,0,0,0,0-.05-.08-.11-.17-.16-.25-.08-.14-.16-.28-.24-.42-.07-.13-.14-.26-.2-.39-.12-.2-.22-.41-.31-.62-.05-.1-.1-.2-.14-.31,0-.02-.02-.04-.03-.07-.05-.1-.09-.21-.14-.31-.08-.17-.15-.35-.21-.53,0,0,0,0,0-.02-.06-.15-.11-.29-.16-.44,0-.03-.02-.06-.03-.09-.07-.18-.12-.37-.18-.55,0,0,0-.01,0-.02-.04-.15-.09-.3-.13-.45-.03-.11-.06-.21-.09-.32-.04-.17-.09-.35-.13-.52,0,0,0-.02,0-.03-.03-.14-.06-.28-.09-.43-.02-.09-.04-.19-.05-.28-.03-.14-.05-.28-.08-.43-.15-.91-.22-1.84-.22-2.79s.08-1.88.22-2.79c.02-.15.05-.29.08-.43.01-.1.03-.19.05-.28.03-.15.06-.29.09-.43,0,0,0-.02,0-.03.04-.18.08-.35.13-.52.03-.11.06-.21.09-.32.04-.15.08-.3.13-.45,0,0,0-.01,0-.02.06-.19.12-.37.18-.55,0-.03.02-.06.03-.09.05-.15.11-.3.16-.44,0,0,0-.01,0-.02.07-.18.14-.35.21-.53.04-.11.09-.21.14-.31,0-.02.02-.04.03-.07.04-.1.09-.2.14-.31.1-.21.2-.42.31-.62.06-.13.13-.26.2-.39.08-.14.16-.28.24-.42.05-.08.1-.17.16-.25,0,0,0,0,0,0,.09-.14.18-.29.27-.43.08-.13.17-.26.26-.39.12-.18.25-.36.39-.53Z"/>
</svg>