<?xml version="1.0" encoding="UTF-8"?>
<svg id="Capa_1" data-name="Capa 1" xmlns="http://www.w3.org/2000/svg" viewBox="0 0 35.46 82">
  <defs>
    <style>
      .cls-1 {
        fill: #3a3a38;
      }
    </style>
  </defs>
  <path class="cls-1" d="M17.73,46.54c-.95,0-1.88.08-2.79.22-.15.02-.29.05-.43.08-.1.01-.19.03-.28.05-.15.03-.29.06-.43.09,0,0-.02,0-.03,0-.18.04-.35.08-.52.13-.11.03-.21.06-.32.09-.15.04-.3.08-.45.13,0,0-.01,0-.02,0-.19.06-.37.12-.55.18-.03,0-.06.02-.09.03-.15.05-.3.11-.44.16,0,0-.01,0-.02,0-.18.07-.35.14-.53.21-.11.04-.21.09-.31.14-.02,0-.04.02-.07.03-.1.04-.2.09-.31.14-.21.1-.42.2-.62.31-.13.06-.26.13-.39.2-.14.08-.28.16-.42.24-.08.05-.17.1-.25.16-.15.09-.29.18-.43.28-.13.08-.26.17-.39.26-.18.12-.36.25-.53.39-.12.09-.24.19-.36.28-1.73,1.37-3.2,3.05-4.32,4.97-.38.65-.72,1.33-1.02,2.03C.5,59.49,0,61.82,0,64.27c0,9.79,7.94,17.73,17.73,17.73,9.79,0,17.73-7.94,17.73-17.73,0-2.45-.5-4.78-1.39-6.9-.3-.7-.64-1.38-1.02-2.03-1.12-1.92-2.58-3.6-4.32-4.97-.12-.09-.24-.19-.36-.28-.17-.13-.35-.26-.53-.39-.13-.09-.26-.18-.39-.26-.14-.1-.29-.19-.43-.28-.08-.05-.17-.11-.25-.16-.14-.08-.28-.16-.42-.24-.13-.07-.26-.14-.39-.2-.2-.12-.41-.22-.62-.31-.1-.05-.2-.1-.31-.14-.02,0-.04-.02-.07-.03-.11-.05-.21-.09-.31-.14-.17-.08-.35-.15-.53-.21,0,0,0,0-.02,0-.15-.06-.29-.11-.44-.16-.03,0-.06-.02-.09-.03-.19-.07-.37-.12-.55-.18,0,0-.01,0-.02,0-.15-.04-.3-.09-.45-.13-.11-.03-.21-.06-.32-.09-.17-.04-.35-.09-.52-.13,0,0-.02,0-.03,0-.14-.03-.28-.06-.43-.09-.09-.02-.19-.04-.28-.05-.14-.03-.28-.05-.43-.08-.91-.15-1.84-.22-2.79-.22Z"/>
  <path class="cls-1" d="M17.73,0C7.94,0,0,7.94,0,17.73c0,2.45.5,4.78,1.39,6.9.3.7.64,1.38,1.02,2.03,1.12,1.92,2.58,3.6,4.32,4.97.12.1.24.19.36.28.17.13.35.26.53.39.13.09.26.18.39.26.14.1.28.19.43.27,0,0,0,0,0,0,.08.05.17.11.25.16.14.08.28.16.42.24.13.07.26.14.39.2.2.12.41.22.62.31.1.05.2.1.31.14.02,0,.04.02.07.03.1.05.21.09.31.14.17.08.35.15.53.21,0,0,0,0,.02,0,.15.06.29.11.44.16.03,0,.06.02.09.03.18.07.37.12.55.18,0,0,.01,0,.02,0,.15.04.3.09.45.13.11.03.21.06.32.09.17.04.35.09.52.13,0,0,.02,0,.03,0,.14.03.28.06.43.09.09.02.19.04.28.05.14.03.28.05.43.08.91.15,1.84.22,2.79.22s1.88-.08,2.79-.22c.15-.02.29-.05.43-.08.1-.01.19-.03.28-.05.15-.03.29-.06.43-.09,0,0,.02,0,.03,0,.18-.04.35-.08.52-.13.11-.03.21-.06.32-.09.15-.04.3-.08.45-.13,0,0,.01,0,.02,0,.19-.06.37-.12.55-.18.03,0,.06-.02.09-.03.15-.05.3-.11.44-.16,0,0,.01,0,.02,0,.18-.07.35-.14.53-.21.11-.04.21-.09.31-.14.02,0,.04-.02.07-.03.1-.04.2-.09.31-.14.21-.1.42-.2.62-.31.13-.06.26-.13.39-.2.14-.08.28-.16.42-.24.08-.05.17-.1.25-.16,0,0,0,0,0,0,.14-.09.29-.18.43-.27.13-.08.26-.17.39-.26.18-.12.36-.25.53-.39.12-.09.24-.18.36-.28,1.73-1.37,3.2-3.05,4.32-4.97.38-.65.72-1.33,1.02-2.03.9-2.12,1.39-4.45,1.39-6.9C35.46,7.94,27.52,0,17.73,0Z"/>
  <path class="cls-1" d="M7.09,31.91c-.12-.09-.24-.18-.36-.28,2.12,2.11,4.13,4.67,4.13,9.37s-2.01,7.26-4.13,9.37c.12-.09.24-.19.36-.28.17-.13.35-.26.53-.39.13-.09.26-.18.39-.26.14-.1.29-.19.43-.28.08-.05.17-.11.25-.16.14-.08.28-.16.42-.24.13-.07.26-.14.39-.2.2-.12.41-.22.62-.31.1-.05.2-.1.31-.14.02,0,.04-.02.07-.03.1-.05.21-.09.31-.14.17-.08.35-.15.53-.21,0,0,0,0,.02,0,.15-.06.29-.11.44-.16.03,0,.06-.02.09-.03.18-.07.37-.12.55-.18,0,0,.01,0,.02,0,.15-.04.3-.09.45-.13.11-.03.21-.06.32-.09.17-.04.35-.09.52-.13,0,0,.02,0,.03,0,.14-.03.28-.06.43-.09.09-.02.19-.04.28-.05.14-.03.28-.05.43-.08.91-.15,1.84-.22,2.79-.22s1.88.08,2.79.22c.15.02.29.05.43.08.1.01.19.03.28.05.15.03.29.06.43.09,0,0,.02,0,.03,0,.18.04.35.08.52.13.11.03.21.06.32.09.15.04.3.08.45.13,0,0,.01,0,.02,0,.19.06.37.12.55.18.03,0,.06.02.09.03.15.05.3.11.44.16,0,0,.01,0,.02,0,.18.07.35.14.53.21.11.04.21.09.31.14.02,0,.04.02.07.03.1.04.2.09.31.14.21.1.42.2.62.31.13.06.26.13.39.2.14.08.28.16.42.24.08.05.17.1.25.16.15.09.29.18.43.28.13.08.26.17.39.26.18.12.36.25.53.39.12.09.24.19.36.28-2.12-2.11-4.13-4.67-4.13-9.37s2.01-7.26,4.13-9.37c-.12.1-.24.19-.36.28-.17.13-.35.26-.53.39-.13.09-.26.18-.39.26-.14.1-.28.19-.43.27,0,0,0,0,0,0-.08.05-.17.11-.25.16-.14.08-.28.16-.42.24-.13.07-.26.14-.39.2-.2.12-.41.22-.62.31-.1.05-.2.1-.31.14-.02,0-.04.02-.07.03-.1.05-.21.09-.31.14-.17.08-.35.15-.53.21,0,0,0,0-.02,0-.15.06-.29.11-.44.16-.03,0-.06.02-.09.03-.18.07-.37.12-.55.18,0,0-.01,0-.02,0-.15.04-.3.09-.45.13-.11.03-.21.06-.32.09-.17.04-.35.09-.52.13,0,0-.02,0-.03,0-.14.03-.28.06-.43.09-.09.02-.19.04-.28.05-.14.03-.28.05-.43.08-.91.15-1.84.22-2.79.22s-1.88-.08-2.79-.22c-.15-.02-.29-.05-.43-.08-.1-.01-.19-.03-.28-.05-.15-.03-.29-.06-.43-.09,0,0-.02,0-.03,0-.18-.04-.35-.08-.52-.13-.11-.03-.21-.06-.32-.09-.15-.04-.3-.08-.45-.13,0,0-.01,0-.02,0-.19-.06-.37-.12-.55-.18-.03,0-.06-.02-.09-.03-.15-.05-.3-.11-.44-.16,0,0-.01,0-.02,0-.18-.07-.35-.14-.53-.21-.11-.04-.21-.09-.31-.14-.02,0-.04-.02-.07-.03-.1-.04-.2-.09-.31-.14-.21-.1-.42-.2-.62-.31-.13-.06-.26-.13-.39-.2-.14-.08-.28-.16-.42-.24-.08-.05-.17-.1-.25-.16,0,0,0,0,0,0-.14-.09-.29-.18-.43-.27-.13-.08-.26-.17-.39-.26-.18-.12-.36-.25-.53-.39Z"/>
</svg>