<?xml version="1.0" encoding="UTF-8"?>
<svg id="Capa_1" data-name="Capa 1" xmlns="http://www.w3.org/2000/svg" viewBox="0 0 82 82">
  <defs>
    <style>
      .cls-1 {
        fill: #3a3a38;
      }
    </style>
  </defs>
  <path class="cls-1" d="M35.46,64.27c0-.78-.05-1.54-.15-2.29-1.13-8.71-8.57-15.44-17.58-15.44h-.22c-.27,0-.54.01-.81.03-.5.03-1,.08-1.49.15C6.61,47.94,0,55.33,0,64.27c0,9.79,7.94,17.73,17.73,17.73,8.93,0,16.32-6.61,17.55-15.2,0-.02,0-.04,0-.05.02-.12.04-.24.05-.36.04-.35.08-.71.1-1.08h0c.02-.35.03-.7.03-1.04Z"/>
  <path class="cls-1" d="M65.33,35.43c-.35.02-.7.03-1.05.03-.78,0-1.54-.05-2.29-.15-8.71-1.13-15.44-8.57-15.44-17.58v-.22c0-.27.01-.54.03-.81-1.91,15.6-14.28,27.96-29.87,29.87.27-.02.54-.03.81-.03h.22c9.02,0,16.46,6.73,17.58,15.44.1.75.15,1.52.15,2.29,0,.34,0,.69-.03,1.02,1.38-11.24,8.19-20.8,17.72-25.97.66-.36,1.34-.7,2.03-1.02,3.15-1.45,6.56-2.44,10.15-2.87Z"/>
  <path class="cls-1" d="M82,17.73c0-9.79-7.94-17.73-17.73-17.73-8.94,0-16.33,6.61-17.55,15.21-.07.49-.12.99-.15,1.49-.02.27-.03.54-.03.81v.22c0,9.02,6.73,16.46,15.44,17.58.75.1,1.52.15,2.29.15.35,0,.7,0,1.05-.03h0c.35-.02.7-.06,1.05-.1.13-.02.27-.03.4-.05h.01c8.59-1.22,15.2-8.62,15.2-17.55Z"/>
</svg>