<?xml version="1.0" encoding="UTF-8"?>
<svg id="Capa_1" data-name="Capa 1" xmlns="http://www.w3.org/2000/svg" viewBox="0 0 83 83">
  <defs>
    <style>
      .cls-1 {
        fill: #3a3a38;
      }
    </style>
  </defs>
  <path class="cls-1" d="M47.11,65.05c0-.79.05-1.56.15-2.32,1.14-8.82,8.67-15.63,17.8-15.63h.22c.27,0,.55.01.82.03.51.03,1.01.08,1.51.15,8.7,1.24,15.39,8.72,15.39,17.77,0,9.91-8.04,17.95-17.95,17.95-9.04,0-16.52-6.69-17.76-15.39,0-.02,0-.04,0-.05-.02-.12-.04-.25-.05-.37-.04-.36-.08-.72-.1-1.09h0c-.02-.35-.03-.7-.03-1.05Z"/>
  <path class="cls-1" d="M16.88,35.86c.35.02.71.03,1.07.03.79,0,1.56-.05,2.32-.15,8.82-1.14,15.63-8.67,15.63-17.8v-.22c0-.27-.01-.55-.03-.82,1.93,15.79,14.45,28.31,30.24,30.24-.27-.02-.55-.03-.82-.03h-.22c-9.13,0-16.66,6.81-17.8,15.63-.1.76-.15,1.53-.15,2.32,0,.35,0,.7.03,1.04-1.4-11.37-8.29-21.05-17.94-26.29-.67-.37-1.35-.71-2.05-1.03-3.19-1.47-6.64-2.47-10.27-2.91Z"/>
  <path class="cls-1" d="M0,17.95C0,8.04,8.04,0,17.95,0c9.04,0,16.53,6.69,17.77,15.39.07.5.12,1,.15,1.51.02.27.03.55.03.82v.22c0,9.13-6.81,16.66-15.63,17.8-.76.1-1.53.15-2.32.15-.36,0-.71,0-1.07-.03h0c-.36-.02-.71-.06-1.06-.1-.13-.02-.27-.03-.4-.05h-.01C6.69,34.47,0,26.99,0,17.95Z"/>
</svg>